<svg width="57" height="11" viewBox="0 0 57 11" fill="none" xmlns="http://www.w3.org/2000/svg">
<path opacity="0.9" d="M50.4097 10.1076V0.181641H56.7937V1.32964H51.6557V4.42364H55.7017V5.59964H51.6557V8.95964H56.7937V10.1076H50.4097Z" fill="white"/>
<path opacity="0.9" d="M47.1182 10.1076L45.1302 5.97764H43.0722V10.1076H41.8262V0.181641H45.1722C47.1882 0.181641 48.4762 1.27364 48.4762 3.07964C48.4762 4.33964 47.7482 5.38964 46.3762 5.75364L48.5182 10.1076H47.1182ZM47.1882 3.07964C47.1882 1.81964 46.3062 1.32964 45.1302 1.32964H43.0722V4.81564H45.1302C46.3062 4.81564 47.1882 4.33964 47.1882 3.07964Z" fill="white"/>
<path opacity="0.9" d="M40.2286 5.152C40.2286 6.734 40.1026 8.232 39.0246 9.282C38.3106 9.982 37.4566 10.304 36.4766 10.304C35.4966 10.304 34.6426 9.982 33.9286 9.282C32.8506 8.232 32.7246 6.734 32.7246 5.152C32.7246 3.57 32.8506 2.072 33.9286 1.022C34.6426 0.322 35.4966 0 36.4766 0C37.4566 0 38.3106 0.322 39.0246 1.022C40.1026 2.072 40.2286 3.57 40.2286 5.152ZM38.9406 5.054C38.9406 4.032 38.9406 2.688 38.1566 1.876C37.6806 1.386 37.1346 1.19 36.4766 1.19C35.8186 1.19 35.2726 1.4 34.7966 1.89C34.0126 2.702 34.0126 4.032 34.0126 5.054V5.25C34.0126 6.272 34.0126 7.616 34.7966 8.428C35.2726 8.918 35.8186 9.114 36.4766 9.114C37.1346 9.114 37.6806 8.918 38.1566 8.428C38.9406 7.616 38.9406 6.272 38.9406 5.25V5.054Z" fill="white"/>
<path opacity="0.9" d="M25.5967 10.1076V0.181641H26.8427V8.94564H31.9667V10.1076H25.5967Z" fill="white"/>
<path opacity="0.9" d="M20.2891 0.181641C22.3191 0.181641 23.6071 1.27364 23.6071 3.12164C23.6071 4.96964 22.3191 6.06164 20.2891 6.06164H17.9091V10.1076H16.6631V0.181641H20.2891ZM17.9091 1.31564V4.92764H20.1911C21.5211 4.92764 22.3191 4.33964 22.3191 3.12164C22.3191 1.90364 21.5211 1.31564 20.1911 1.31564H17.9091Z" fill="white"/>
<path opacity="0.9" d="M13.7356 10.1076L11.2436 6.07564L8.77955 10.1076H7.39355L10.5436 5.09564L7.39355 0.181641H8.82156L11.2996 4.05964L13.7496 0.181641H15.1356L11.9996 5.09564L15.1496 10.1076H13.7356Z" fill="white"/>
<path opacity="0.9" d="M0 10.1076V0.181641H6.384V1.32964H1.246V4.42364H5.292V5.59964H1.246V8.95964H6.384V10.1076H0Z" fill="white"/>
</svg>
