<svg width="64" height="64" viewBox="0 0 64 64" fill="none" xmlns="http://www.w3.org/2000/svg">
<path fill-rule="evenodd" clip-rule="evenodd" d="M28.9416 17.7523C27.8227 17.8415 27.6349 17.9031 26.1783 18.657C25.3189 19.102 24.191 19.6042 23.6721 19.773C22.2 20.2522 21.7468 20.5343 20.6163 21.6755C18.9424 23.3651 18.6246 23.2751 15.4918 20.2239C13.0275 17.8236 11.3204 17.4526 10.4455 19.1272C9.68523 20.5818 10.1135 21.2514 14.9095 26.1088C20.9638 32.2406 20.9666 31.7188 14.8457 37.9033C10.0962 42.7021 9.63967 43.4263 10.4705 44.8415C11.4595 46.5261 13.0075 46.0987 15.8649 43.352C18.6178 40.7057 19.1446 40.5642 20.4805 42.1116C21.3147 43.0778 22.1883 43.6282 23.7321 44.1601C24.4322 44.4012 25.4642 44.8634 26.0253 45.1871C27.6218 46.108 28.1303 46.1932 32.0294 46.1932C35.9368 46.1932 36.3956 46.1155 38.0202 45.1784C38.6025 44.8425 39.5878 44.3957 40.2098 44.1854C41.8469 43.6321 42.1545 43.4458 43.3601 42.277C45.1006 40.5898 45.392 40.6562 48.2231 43.3873C51.0259 46.091 52.2048 46.4493 53.4457 44.9745C54.5435 43.6698 54.0186 42.7845 49.3337 38.0381C44.985 33.6325 44.6327 33.1805 44.6327 32.0079C44.6327 30.6168 44.6687 30.5717 50.2698 24.9207C53.8404 21.3181 54.3588 20.3744 53.5161 19.011C52.5441 17.4381 51.0484 17.8307 48.4208 20.3486C45.4233 23.2209 45.016 23.3513 43.6239 21.8847C42.48 20.6796 41.9954 20.3576 40.5657 19.8518C39.874 19.6072 38.6411 19.0613 37.8255 18.6386C35.9197 17.6508 33.3826 17.3976 28.9416 17.7523Z" fill="black"/>
</svg>
